<?xml version="1.0" standalone="no"?>
<!DOCTYPE svg PUBLIC "-//W3C//DTD SVG 20010904//EN"
 "http://www.w3.org/TR/2001/REC-SVG-20010904/DTD/svg10.dtd">
<svg version="1.0" xmlns="http://www.w3.org/2000/svg"
 width="900.000000pt" height="828.000000pt" viewBox="0 0 900.000000 828.000000"
 preserveAspectRatio="xMidYMid meet">
<metadata>
Created by potrace 1.10, written by Peter Selinger 2001-2011
</metadata>
<g transform="translate(0.000000,828.000000) scale(0.100000,-0.100000)"
fill="#00ccff" stroke="none">
<path d="M4110 7788 c-25 -5 -83 -13 -130 -17 -47 -4 -95 -13 -105 -18 -11 -6
-44 -13 -74 -16 -30 -4 -59 -11 -65 -17 -5 -5 -26 -10 -45 -10 -20 0 -49 -7
-65 -15 -15 -8 -40 -15 -55 -15 -14 0 -39 -7 -55 -15 -15 -8 -36 -15 -45 -15
-9 0 -28 -6 -42 -14 -14 -7 -42 -16 -62 -20 -21 -4 -37 -11 -37 -15 0 -5 -18
-11 -40 -15 -22 -3 -40 -11 -40 -16 0 -6 -10 -10 -23 -10 -12 0 -31 -6 -42
-14 -11 -7 -32 -16 -47 -20 -16 -3 -28 -11 -28 -16 0 -6 -7 -10 -16 -10 -14 0
-48 -15 -94 -41 -8 -5 -22 -12 -30 -15 -8 -3 -22 -9 -30 -14 -8 -5 -40 -21
-70 -37 -30 -15 -61 -34 -68 -40 -7 -7 -20 -13 -28 -13 -8 0 -14 -4 -14 -10 0
-5 -4 -10 -9 -10 -8 0 -94 -53 -127 -77 -5 -4 -17 -12 -26 -18 -37 -23 -125
-84 -148 -104 -14 -11 -30 -24 -35 -28 -110 -84 -172 -140 -320 -288 -131
-130 -232 -241 -249 -273 -5 -9 -12 -19 -16 -22 -7 -5 -66 -84 -90 -120 -8
-12 -20 -28 -25 -34 -6 -6 -22 -29 -35 -51 -13 -22 -26 -42 -29 -45 -8 -6 -28
-39 -41 -65 -6 -11 -19 -33 -30 -50 -11 -16 -25 -42 -31 -57 -6 -16 -15 -28
-20 -28 -5 0 -9 -8 -9 -19 0 -10 -7 -24 -15 -31 -8 -7 -15 -18 -15 -25 0 -7
-7 -18 -15 -25 -8 -7 -15 -23 -15 -36 0 -12 -4 -25 -9 -28 -9 -6 -32 -51 -71
-141 -12 -27 -28 -64 -36 -82 -8 -17 -14 -38 -14 -46 0 -9 -4 -18 -9 -22 -5
-3 -12 -19 -16 -36 -4 -17 -13 -42 -21 -57 -8 -15 -14 -34 -14 -43 0 -9 -7
-30 -15 -45 -8 -16 -15 -36 -15 -45 0 -9 -7 -33 -15 -52 -8 -20 -15 -49 -15
-65 0 -15 -4 -32 -9 -37 -6 -6 -15 -35 -20 -65 -6 -30 -15 -82 -21 -115 -6
-33 -16 -76 -21 -95 -12 -44 -27 -170 -39 -320 -9 -111 3 -660 15 -679 3 -5
12 -58 21 -117 21 -149 29 -192 43 -244 7 -25 19 -70 27 -100 8 -30 26 -89 40
-130 14 -41 29 -91 33 -110 4 -19 13 -45 19 -57 7 -12 12 -32 12 -45 0 -13 7
-32 15 -42 8 -11 15 -29 15 -40 0 -12 7 -30 15 -40 8 -11 15 -30 15 -42 0 -12
7 -27 15 -34 8 -7 15 -26 15 -42 0 -16 6 -31 15 -34 8 -4 15 -18 15 -34 0 -16
7 -30 15 -34 8 -3 15 -17 15 -31 0 -14 7 -28 15 -31 8 -4 15 -17 15 -30 0 -14
7 -27 15 -30 8 -4 15 -16 15 -29 0 -12 7 -28 15 -35 8 -7 15 -20 15 -30 0 -10
7 -20 15 -24 8 -3 15 -14 15 -24 0 -11 7 -25 15 -32 8 -7 15 -19 15 -26 0 -8
4 -14 9 -14 5 0 13 -10 17 -22 4 -13 10 -25 13 -28 4 -3 18 -23 31 -45 13 -22
27 -42 30 -45 3 -3 17 -23 30 -45 13 -22 32 -49 42 -59 10 -11 30 -38 45 -60
16 -23 33 -46 38 -52 6 -6 37 -42 70 -80 71 -83 251 -263 320 -321 28 -23 61
-51 75 -63 14 -12 52 -43 85 -68 33 -26 66 -52 73 -59 7 -7 18 -13 23 -13 6 0
17 -6 24 -12 26 -24 40 -34 80 -58 22 -13 42 -27 45 -30 3 -3 16 -11 30 -18
14 -7 48 -26 75 -43 28 -17 62 -35 78 -42 15 -6 27 -14 27 -18 0 -4 12 -10 26
-13 15 -4 33 -14 41 -21 8 -8 23 -15 34 -15 10 0 19 -4 19 -10 0 -5 5 -10 11
-10 9 0 45 -15 136 -56 17 -8 38 -14 47 -14 9 0 16 -4 16 -9 0 -5 14 -12 31
-16 17 -4 42 -13 57 -21 15 -8 39 -14 55 -14 15 0 27 -4 27 -10 0 -5 17 -12
38 -15 20 -4 51 -13 69 -21 17 -8 42 -14 55 -14 13 0 29 -5 34 -10 6 -6 35
-13 65 -17 30 -3 59 -10 66 -15 7 -6 41 -12 75 -15 35 -3 71 -10 81 -15 34
-17 253 -31 502 -31 271 0 472 15 522 38 17 8 56 15 86 15 36 0 59 5 67 15 8
10 31 15 66 15 36 0 56 5 61 14 5 8 27 16 53 18 62 4 57 22 -7 26 -43 2 -53 0
-53 -12 0 -13 -12 -16 -59 -16 -40 0 -63 -5 -71 -15 -8 -10 -31 -15 -71 -15
-32 0 -70 -5 -86 -12 -102 -41 -850 -41 -986 1 -18 5 -59 14 -92 20 -105 17
-290 63 -301 74 -4 4 -17 7 -28 7 -12 0 -33 6 -47 14 -14 7 -42 16 -62 20 -20
4 -49 13 -64 21 -15 8 -33 15 -39 15 -10 0 -57 19 -94 39 -9 5 -30 12 -48 16
-18 3 -32 11 -32 16 0 5 -8 9 -17 9 -10 0 -31 9 -48 20 -16 11 -38 20 -47 20
-10 0 -18 4 -18 8 0 5 -25 19 -55 33 -30 13 -55 27 -55 32 0 4 -5 7 -11 7 -11
0 -179 98 -189 110 -3 3 -23 17 -45 30 -22 13 -42 26 -45 30 -3 3 -23 17 -45
32 -22 15 -53 39 -70 54 -16 14 -41 34 -55 43 -69 44 -377 350 -465 461 -33
41 -64 80 -70 86 -5 6 -17 22 -25 34 -8 12 -36 51 -63 86 -26 35 -47 68 -47
74 0 5 -5 10 -10 10 -6 0 -15 10 -20 22 -6 13 -19 37 -30 53 -11 17 -24 40
-29 52 -5 11 -15 24 -20 28 -6 3 -11 15 -11 26 0 11 -7 22 -15 25 -8 4 -15 16
-15 29 0 13 -7 25 -15 29 -18 7 -21 50 -2 44 6 -3 14 -13 16 -24 2 -10 6 -21
10 -24 6 -5 34 -46 56 -82 49 -81 182 -261 247 -334 136 -150 257 -275 334
-344 95 -84 109 -96 179 -150 39 -30 76 -60 82 -67 7 -6 45 -33 84 -60 98 -66
121 -81 144 -93 36 -18 60 -35 68 -48 4 -6 16 -12 26 -12 11 0 21 -7 25 -15 3
-8 15 -15 26 -15 11 0 23 -7 26 -15 4 -8 14 -15 24 -15 10 0 23 -7 30 -15 7
-8 20 -15 30 -15 10 0 23 -7 30 -15 14 -17 60 -21 60 -5 0 6 12 10 26 10 14 0
23 -4 19 -10 -3 -5 -15 -10 -26 -10 -25 0 -20 -24 6 -28 10 -2 28 1 40 8 13 7
29 10 37 7 9 -4 5 -8 -10 -13 -13 -3 -21 -12 -19 -18 6 -17 37 -20 63 -5 13 7
27 9 31 5 4 -4 -3 -9 -15 -13 -13 -3 -21 -11 -19 -17 5 -15 57 -20 70 -7 6 6
16 11 21 11 6 0 5 -5 -2 -12 -22 -22 -13 -38 22 -38 18 0 39 -7 46 -15 7 -8
25 -15 40 -15 15 0 33 -7 40 -15 7 -8 27 -15 44 -15 17 0 40 -7 50 -15 11 -8
34 -15 50 -15 17 0 40 -7 50 -15 11 -8 36 -15 55 -15 20 -1 47 -7 61 -15 14
-8 38 -14 53 -15 16 0 56 -7 90 -15 119 -28 254 -46 457 -59 183 -11 230 -11
430 5 124 10 245 22 270 28 25 6 65 10 90 11 26 0 51 5 58 12 16 16 104 16
109 1 3 -8 22 -13 45 -13 43 0 51 22 10 28 -12 2 -22 8 -22 13 0 12 67 12 75
-1 8 -14 52 -13 61 1 3 6 0 15 -7 20 -23 14 -1 22 31 11 31 -11 60 -7 60 9 0
5 9 9 20 9 10 0 36 7 57 16 21 9 52 23 68 30 136 59 539 256 543 267 2 4 8 7
14 7 10 0 128 68 138 79 3 3 43 32 90 63 47 32 98 69 114 83 16 14 32 25 35
25 3 0 22 15 42 33 19 17 64 57 100 87 86 74 229 217 315 314 38 44 79 91 92
104 12 14 22 28 22 31 0 3 13 20 28 37 15 18 34 42 42 54 8 12 29 41 46 64 50
68 94 136 94 147 0 5 5 9 10 9 6 0 10 6 10 13 0 8 9 24 20 37 11 13 20 29 20
37 0 7 4 13 8 13 4 0 15 15 23 33 9 17 39 77 67 131 29 55 52 106 52 113 0 7
4 13 9 13 5 0 13 14 16 32 4 17 14 38 21 46 8 7 14 22 14 32 0 10 7 31 15 46
8 16 15 37 15 47 0 9 4 17 9 17 5 0 12 16 15 35 4 19 13 47 21 62 8 15 15 35
15 44 0 9 7 30 15 45 8 16 15 43 15 61 0 17 4 33 10 35 5 1 12 25 14 52 3 27
10 54 16 60 5 5 10 28 10 51 0 22 7 53 15 69 9 17 15 55 15 95 0 44 5 74 15
87 11 14 14 50 15 142 0 72 7 155 16 200 17 82 15 230 -5 312 -5 25 -10 101
-11 170 0 94 -4 130 -15 144 -10 13 -15 44 -15 90 -1 47 -6 78 -15 90 -8 11
-15 41 -15 67 0 26 -7 60 -15 75 -8 16 -15 43 -15 61 0 17 -4 35 -10 38 -5 3
-12 28 -16 55 -4 27 -13 55 -20 61 -8 6 -14 29 -14 50 0 22 -4 39 -10 39 -5 0
-12 16 -16 37 -4 20 -13 48 -20 62 -8 14 -14 34 -14 44 0 9 -4 17 -9 17 -5 0
-12 18 -16 39 -4 22 -13 42 -21 45 -8 3 -14 16 -14 30 0 13 -5 26 -10 28 -6 2
-12 12 -14 23 -4 19 -46 111 -67 145 -5 8 -15 26 -21 40 -7 14 -18 31 -25 38
-7 7 -13 22 -13 33 0 10 -4 19 -8 19 -5 0 -19 20 -31 45 -12 24 -26 47 -31 50
-4 3 -17 23 -29 46 -12 22 -26 46 -31 52 -5 7 -46 62 -91 122 -45 61 -85 112
-88 115 -4 3 -25 27 -46 54 -114 142 -306 330 -452 443 -15 12 -37 30 -48 41
-12 10 -45 36 -75 57 -30 21 -57 41 -60 45 -3 3 -23 17 -45 30 -22 13 -42 27
-45 30 -3 3 -23 17 -45 30 -22 13 -42 27 -45 30 -3 3 -16 11 -30 17 -14 7 -47
26 -75 42 -71 42 -271 141 -284 141 -6 0 -11 4 -11 9 0 5 -14 13 -32 16 -17 4
-38 14 -46 21 -7 8 -24 14 -37 14 -13 0 -26 4 -30 9 -3 5 -19 12 -36 16 -17 4
-42 13 -57 21 -15 8 -37 14 -49 14 -13 0 -23 4 -23 9 0 5 -17 11 -39 15 -21 3
-51 13 -67 21 -16 8 -41 15 -55 15 -15 0 -40 7 -55 15 -16 8 -46 15 -66 15
-20 0 -39 4 -43 9 -3 5 -31 12 -63 16 -31 3 -66 11 -77 16 -11 5 -61 14 -110
19 -50 5 -110 13 -135 19 -56 13 -697 12 -760 -1z m767 -50 c6 -5 53 -12 105
-15 51 -3 98 -10 104 -14 6 -5 40 -12 75 -15 35 -4 69 -10 74 -15 6 -4 35 -11
65 -15 30 -4 57 -11 61 -15 3 -5 27 -12 55 -15 27 -4 52 -11 55 -17 4 -5 27
-12 53 -14 25 -3 46 -9 46 -14 0 -4 16 -11 37 -15 20 -4 48 -13 62 -20 14 -8
31 -14 37 -14 7 0 25 -7 40 -15 16 -8 37 -15 47 -15 9 0 17 -4 17 -10 0 -5 5
-10 11 -10 17 0 284 -125 299 -140 3 -3 23 -14 45 -25 40 -20 131 -76 151 -93
6 -5 19 -12 30 -16 10 -3 31 -17 46 -31 15 -14 31 -25 36 -25 5 0 20 -9 33
-20 41 -33 43 -35 78 -60 32 -23 75 -58 105 -85 6 -6 40 -35 76 -64 79 -66
260 -248 315 -316 22 -27 56 -67 74 -88 19 -21 46 -54 60 -75 15 -20 38 -50
53 -67 16 -16 28 -35 28 -42 0 -6 4 -13 8 -15 9 -4 99 -138 126 -188 10 -19
21 -37 25 -40 3 -3 17 -27 30 -55 14 -27 31 -56 38 -63 7 -7 13 -20 13 -28 0
-9 7 -22 15 -30 8 -9 15 -24 15 -35 0 -10 5 -19 10 -19 6 0 10 -6 10 -12 1 -7
9 -31 20 -53 11 -22 19 -46 20 -52 0 -7 4 -13 10 -13 5 0 12 -16 16 -35 3 -19
12 -39 20 -46 8 -6 14 -23 14 -38 0 -14 7 -35 15 -45 8 -11 15 -27 15 -37 0
-9 7 -30 15 -45 8 -16 15 -36 15 -45 0 -9 7 -30 15 -45 8 -16 15 -43 15 -60 0
-17 7 -37 15 -44 9 -8 15 -30 15 -59 0 -25 7 -55 15 -65 8 -11 15 -39 15 -62
0 -23 7 -55 15 -70 9 -17 15 -56 15 -92 0 -37 6 -72 14 -85 13 -20 27 -261 27
-472 1 -154 -17 -443 -27 -456 -6 -8 -14 -49 -16 -92 -3 -43 -10 -83 -17 -90
-6 -6 -11 -29 -11 -50 0 -21 -6 -53 -14 -70 -8 -18 -17 -52 -19 -77 -3 -24
-11 -46 -16 -48 -6 -2 -11 -19 -11 -38 0 -19 -9 -51 -20 -71 -11 -21 -20 -45
-20 -54 0 -9 -7 -30 -15 -45 -8 -16 -15 -37 -15 -46 0 -9 -4 -20 -10 -23 -5
-3 -10 -13 -10 -21 0 -8 -8 -34 -19 -57 -10 -23 -24 -57 -32 -76 -34 -84 -199
-404 -211 -409 -5 -2 -8 -8 -8 -13 0 -5 -20 -38 -45 -75 -25 -36 -45 -67 -45
-70 0 -4 -51 -76 -78 -109 -4 -5 -32 -41 -60 -80 -114 -150 -374 -414 -514
-521 -35 -26 -67 -54 -71 -61 -4 -7 -13 -13 -18 -13 -6 0 -17 -7 -26 -15 -8
-8 -19 -13 -24 -9 -12 7 -2 24 16 24 7 0 15 7 19 15 3 8 12 15 21 15 8 0 15 7
15 15 0 8 4 15 10 15 5 0 25 15 44 33 19 17 69 64 112 102 93 84 85 76 159
160 33 37 74 82 91 100 44 46 184 232 184 244 0 6 6 14 13 18 14 9 32 37 47
71 5 12 14 22 19 22 5 0 12 11 15 25 4 14 11 25 16 25 6 0 10 6 10 14 0 7 7
19 15 26 8 7 15 21 15 32 0 10 7 21 15 24 8 4 15 14 15 24 0 10 7 23 15 30 8
7 15 20 15 30 0 10 7 23 15 30 8 7 15 20 15 30 0 10 7 23 15 30 8 7 15 20 15
30 0 10 7 23 15 30 8 7 15 23 15 35 0 12 7 28 15 35 8 7 15 22 15 34 0 12 7
31 15 42 8 10 15 29 15 40 0 12 7 27 15 34 8 7 15 27 15 45 0 18 7 38 15 45 8
7 15 29 15 50 0 24 5 40 15 44 11 4 15 20 15 55 0 34 4 51 15 55 11 4 15 21
15 59 0 36 5 59 15 67 10 8 15 31 15 64 1 28 7 69 15 91 8 22 15 74 15 115 0
50 6 82 15 94 22 29 21 589 0 626 -9 15 -14 54 -15 101 0 45 -6 92 -15 112 -8
20 -15 59 -15 87 0 32 -6 57 -15 66 -9 9 -15 34 -15 62 0 26 -7 56 -15 66 -8
11 -15 37 -15 59 0 21 -7 45 -15 53 -8 9 -15 28 -15 44 0 15 -7 41 -15 56 -8
16 -15 37 -15 46 0 9 -4 20 -10 23 -5 3 -10 14 -10 23 0 10 -9 34 -20 55 -11
20 -20 46 -20 57 0 11 -4 20 -9 20 -5 0 -12 13 -16 30 -4 16 -11 32 -16 35 -5
4 -9 15 -9 25 0 10 -6 25 -13 32 -8 7 -17 26 -21 41 -3 15 -11 27 -16 27 -6 0
-10 9 -10 19 0 11 -6 26 -12 33 -7 7 -24 36 -38 63 -14 28 -28 52 -31 55 -3 3
-23 34 -44 70 -59 97 -126 194 -141 203 -8 4 -14 15 -14 22 0 8 -5 15 -10 15
-6 0 -15 11 -20 25 -5 14 -14 25 -20 25 -5 0 -10 4 -10 9 0 6 -28 39 -62 74
-72 74 -118 127 -118 134 0 11 -108 112 -113 106 -4 -3 15 -27 41 -53 51 -50
98 -105 122 -141 8 -12 27 -35 43 -51 15 -16 27 -31 27 -33 0 -2 14 -19 30
-37 17 -18 30 -37 30 -43 0 -6 12 -23 28 -40 29 -32 48 -60 58 -87 3 -10 9
-18 13 -18 3 0 17 -20 31 -45 14 -25 28 -45 31 -45 4 0 12 -12 18 -27 10 -27
30 -62 41 -73 3 -3 16 -27 30 -55 14 -27 31 -56 38 -63 6 -7 12 -22 12 -32 0
-10 7 -20 15 -24 8 -3 15 -15 15 -26 0 -12 7 -28 15 -36 8 -9 15 -24 15 -35 0
-10 5 -19 10 -19 6 0 10 -6 10 -12 1 -7 9 -31 20 -53 11 -22 19 -47 20 -56 0
-9 7 -22 15 -29 8 -7 15 -25 15 -41 0 -16 4 -29 10 -29 5 0 12 -17 16 -37 4
-21 13 -47 20 -58 8 -11 14 -31 14 -45 0 -14 7 -34 15 -44 8 -11 15 -36 15
-57 0 -20 7 -42 15 -49 9 -8 15 -30 15 -60 0 -30 6 -52 15 -60 10 -9 15 -32
15 -74 0 -35 7 -73 15 -90 10 -18 15 -57 15 -110 0 -52 5 -87 13 -94 9 -10 12
-85 12 -307 0 -222 -3 -297 -12 -306 -8 -8 -13 -43 -13 -95 0 -53 -5 -92 -15
-110 -8 -16 -15 -54 -15 -85 0 -38 -5 -61 -15 -69 -10 -8 -15 -30 -15 -65 0
-35 -5 -57 -15 -65 -8 -7 -15 -29 -15 -49 0 -21 -7 -46 -15 -57 -8 -10 -15
-33 -15 -50 0 -17 -7 -37 -15 -44 -8 -7 -15 -25 -15 -39 0 -15 -7 -36 -15 -47
-8 -10 -15 -29 -15 -40 0 -12 -7 -27 -15 -34 -8 -7 -15 -25 -15 -40 0 -15 -7
-33 -15 -40 -8 -7 -15 -23 -15 -37 0 -13 -7 -26 -15 -29 -8 -4 -15 -16 -15
-29 0 -12 -7 -28 -15 -35 -8 -7 -15 -20 -15 -30 0 -10 -7 -23 -15 -30 -8 -7
-15 -20 -15 -30 0 -10 -7 -23 -15 -30 -8 -7 -15 -21 -15 -32 0 -10 -7 -21 -15
-24 -8 -4 -15 -14 -15 -23 0 -9 -5 -22 -11 -28 -13 -13 -33 -47 -48 -80 -6
-13 -15 -23 -20 -23 -5 0 -12 -11 -15 -25 -4 -14 -11 -25 -16 -25 -6 0 -10 -5
-10 -11 0 -6 -13 -28 -30 -49 -16 -21 -30 -43 -30 -48 0 -6 -6 -15 -13 -19 -7
-4 -35 -37 -62 -73 -26 -36 -61 -77 -77 -92 -15 -15 -28 -29 -28 -32 0 -3 -15
-21 -32 -39 -18 -19 -50 -53 -70 -76 -20 -22 -41 -41 -47 -41 -6 0 -11 -7 -11
-16 0 -11 -6 -14 -21 -9 -18 6 -20 4 -14 -14 5 -16 2 -21 -10 -21 -14 0 -46
-26 -144 -120 -23 -21 -92 -79 -139 -115 -7 -5 -18 -15 -25 -21 -7 -6 -22 -16
-35 -23 -28 -15 -28 -27 1 -36 21 -7 21 -7 2 -12 -10 -3 -21 0 -23 6 -6 17
-32 13 -32 -4 0 -8 5 -15 10 -15 6 0 10 -5 10 -11 0 -7 -9 -9 -21 -6 -16 4
-23 0 -27 -15 -3 -14 -11 -19 -27 -16 -17 4 -21 1 -18 -13 4 -16 0 -17 -33
-12 -31 5 -36 4 -31 -9 4 -12 1 -14 -15 -10 -13 3 -24 -1 -30 -12 -5 -9 -17
-16 -26 -16 -10 0 -23 -5 -28 -10 -15 -15 -85 -54 -184 -101 -174 -83 -251
-116 -345 -144 -33 -10 -69 -22 -80 -26 -11 -5 -40 -14 -65 -19 -25 -6 -72
-18 -105 -26 -275 -70 -549 -98 -865 -91 -209 5 -277 11 -435 39 -33 5 -85 13
-116 18 -30 4 -65 12 -77 19 -11 6 -38 11 -59 11 -21 0 -47 7 -57 15 -11 8
-37 15 -58 15 -25 0 -41 5 -44 15 -4 10 -20 15 -50 15 -32 0 -44 4 -44 15 0
11 11 15 40 15 29 0 40 4 40 15 0 21 -93 21 -110 0 -14 -17 -55 -17 -55 0 0 6
10 11 23 13 42 6 17 27 -31 27 -29 0 -47 4 -47 11 0 14 -23 24 -54 24 -12 0
-31 7 -42 15 -10 8 -28 15 -40 15 -11 0 -29 7 -40 15 -10 8 -26 15 -34 15 -8
0 -32 9 -53 20 -20 11 -43 20 -51 20 -8 0 -16 3 -18 8 -1 4 -19 15 -38 26
-124 65 -169 91 -197 112 -17 13 -34 24 -38 24 -3 0 -26 15 -49 33 -24 17 -54
39 -66 47 -12 8 -28 20 -34 25 -6 6 -42 35 -81 65 -62 48 -130 110 -244 220
-35 34 -128 135 -181 196 -14 16 -56 70 -93 119 -37 50 -78 103 -90 119 -12
16 -33 48 -46 70 -14 23 -28 43 -31 46 -4 3 -10 15 -14 28 -4 12 -12 22 -17
22 -5 0 -9 6 -9 14 0 8 -6 21 -14 28 -7 8 -17 24 -20 36 -4 12 -12 22 -17 22
-5 0 -9 9 -9 19 0 11 -6 26 -12 33 -15 15 -73 133 -83 166 -3 12 -11 22 -16
22 -5 0 -9 7 -9 16 0 14 -30 89 -50 126 -6 10 -10 26 -10 36 0 10 -7 27 -15
38 -8 10 -15 31 -15 45 0 14 -7 34 -15 45 -8 10 -15 30 -15 44 0 14 -6 37 -13
51 -8 14 -17 45 -21 69 -4 24 -11 49 -15 55 -5 5 -11 35 -15 65 -4 30 -11 59
-15 65 -5 5 -11 41 -14 79 -4 37 -10 73 -15 80 -5 6 -12 67 -16 136 -4 69 -11
143 -16 165 -13 54 -13 325 0 378 6 23 14 96 19 162 5 66 14 138 20 160 6 22
11 59 11 82 0 23 4 44 10 48 5 3 12 33 16 66 4 32 10 62 15 64 4 3 11 26 15
52 4 25 13 58 20 72 8 14 14 37 14 51 0 14 7 34 15 44 8 11 15 32 15 48 0 15
4 28 10 28 5 0 13 18 16 40 4 22 10 40 14 40 5 0 12 15 15 33 4 17 14 41 21
52 8 11 14 27 14 37 0 10 4 18 10 18 5 0 12 16 16 35 3 19 10 35 15 35 5 0 9
5 9 11 0 16 42 101 58 117 6 7 12 20 12 28 0 8 3 14 8 14 4 0 18 23 31 50 13
28 28 50 32 50 5 0 9 5 9 12 0 7 30 57 67 113 75 112 72 107 113 155 16 19 30
38 30 41 0 3 10 17 23 31 12 14 45 52 72 84 85 101 296 307 380 372 44 34 86
67 93 73 34 28 195 131 254 162 37 20 75 41 85 46 53 30 167 81 182 81 9 0 25
7 35 15 11 8 29 15 40 15 12 0 30 7 40 15 11 8 27 15 37 15 9 0 30 7 45 15 16
8 39 15 51 15 12 0 24 4 27 9 3 5 26 12 51 15 24 4 47 11 50 15 2 5 26 12 52
16 27 4 53 10 58 13 20 14 273 58 400 71 318 33 809 11 999 -45 26 -8 63 -14
82 -14 18 0 35 -4 39 -9 3 -6 27 -13 53 -17 26 -3 52 -10 57 -14 6 -5 28 -11
49 -16 22 -4 51 -13 65 -20 14 -8 33 -14 42 -14 9 0 30 -7 45 -15 16 -8 39
-15 52 -15 12 0 22 -4 22 -9 0 -5 12 -12 28 -15 26 -6 67 -24 124 -53 14 -7
31 -13 38 -13 6 0 18 -7 26 -15 9 -8 24 -15 35 -15 10 0 19 -4 19 -9 0 -5 14
-12 30 -16 17 -4 30 -10 30 -13 0 -4 24 -18 53 -32 28 -13 58 -30 65 -37 7 -7
20 -13 28 -13 8 0 14 -4 14 -9 0 -5 10 -13 23 -17 12 -4 24 -10 27 -13 3 -4
23 -18 45 -31 22 -13 46 -30 53 -37 7 -7 20 -13 28 -13 8 0 14 -4 14 -8 0 -5
26 -26 58 -48 31 -21 62 -43 68 -49 28 -26 74 -63 119 -99 64 -51 279 -266
331 -330 21 -28 50 -62 64 -77 25 -27 42 -48 70 -89 8 -12 22 -30 30 -40 8
-10 22 -28 30 -40 8 -12 30 -42 48 -66 17 -23 32 -48 32 -54 0 -6 7 -13 15
-16 8 -4 15 -15 15 -25 0 -10 7 -19 15 -19 9 0 15 -9 15 -24 0 -13 7 -26 15
-30 8 -3 15 -15 15 -26 0 -11 7 -23 15 -26 8 -4 15 -14 15 -24 0 -10 7 -23 15
-30 8 -7 15 -16 15 -21 0 -5 18 -46 39 -92 22 -45 43 -94 46 -110 4 -15 11
-30 16 -33 5 -3 9 -13 9 -22 0 -9 7 -30 15 -46 8 -15 15 -38 15 -50 0 -11 6
-32 13 -46 8 -15 17 -48 20 -74 4 -27 11 -54 16 -60 4 -6 11 -33 15 -61 3 -27
13 -68 21 -90 8 -22 14 -70 15 -107 0 -46 5 -71 15 -82 22 -22 22 -718 0 -736
-11 -9 -15 -34 -15 -89 0 -52 -5 -83 -15 -97 -8 -11 -14 -42 -15 -75 0 -38 -5
-61 -15 -69 -10 -8 -15 -30 -15 -61 0 -29 -6 -53 -15 -63 -8 -8 -15 -32 -15
-55 0 -22 -7 -46 -15 -55 -8 -8 -15 -28 -15 -44 0 -16 -7 -35 -15 -42 -8 -7
-15 -27 -15 -45 0 -18 -7 -38 -15 -45 -8 -7 -15 -25 -15 -40 0 -16 -7 -30 -15
-34 -9 -3 -15 -18 -15 -40 0 -21 -6 -36 -15 -40 -8 -3 -15 -17 -15 -31 0 -14
-7 -28 -15 -31 -8 -4 -15 -16 -15 -29 0 -12 -7 -28 -15 -35 -8 -7 -15 -23 -15
-35 0 -13 -7 -25 -15 -29 -8 -3 -15 -15 -15 -26 0 -11 -7 -23 -15 -26 -8 -4
-15 -17 -15 -30 0 -14 -7 -27 -15 -30 -17 -7 -21 -44 -5 -44 6 0 15 11 20 24
5 13 14 27 19 31 6 3 11 14 11 25 0 10 7 20 15 24 8 3 15 16 15 30 0 13 7 26
15 30 8 3 15 14 15 24 0 11 7 25 15 32 8 7 15 23 15 35 0 13 7 25 15 29 8 3
15 16 15 30 0 13 7 26 15 30 9 3 15 18 15 40 0 21 6 36 15 40 9 3 15 18 15 35
0 16 6 31 15 35 9 3 15 18 15 35 0 16 7 36 15 45 8 8 15 31 15 51 0 22 6 38
15 41 10 4 15 20 15 49 0 25 6 50 15 59 8 8 15 32 15 53 0 21 7 51 15 67 8 15
15 44 15 62 0 19 7 51 15 71 8 20 15 67 15 107 1 43 6 81 15 96 11 20 14 80
15 293 0 176 4 275 11 289 6 11 13 56 16 99 5 67 3 79 -11 85 -11 4 -16 18
-16 43 0 21 -9 73 -21 117 -12 43 -26 102 -31 129 -5 28 -13 55 -18 60 -4 6
-10 30 -13 55 -3 24 -11 46 -16 48 -6 2 -11 18 -11 35 0 18 -7 45 -15 61 -8
15 -15 36 -15 45 0 9 -6 28 -14 43 -8 15 -17 40 -21 57 -4 17 -11 33 -16 36
-5 4 -9 13 -9 21 0 17 -46 126 -87 206 -7 14 -13 33 -13 42 0 9 -4 16 -9 16
-5 0 -12 14 -16 30 -4 17 -10 30 -15 30 -5 0 -11 14 -15 30 -4 17 -10 30 -15
30 -5 0 -12 10 -15 21 -7 20 -118 210 -137 234 -5 6 -30 42 -58 80 -27 39 -53
75 -57 80 -5 6 -33 41 -63 80 -110 140 -443 475 -472 475 -6 0 -8 9 -5 21 5
18 2 20 -20 14 -22 -5 -25 -3 -20 15 4 15 2 20 -8 16 -7 -2 -29 10 -48 27 -35
33 -317 207 -335 207 -6 0 -12 4 -14 8 -4 11 -146 82 -164 82 -8 0 -14 5 -14
10 0 6 -6 10 -12 10 -7 1 -31 9 -53 20 -22 11 -45 19 -51 20 -6 0 -31 11 -56
24 -25 13 -59 27 -76 31 -18 3 -34 11 -37 16 -4 5 -14 9 -23 9 -9 1 -35 9 -57
20 -22 11 -50 19 -62 20 -12 0 -24 4 -28 9 -3 6 -27 13 -53 17 -26 3 -51 10
-57 14 -5 5 -28 11 -50 15 -22 4 -59 13 -83 21 -23 8 -60 14 -80 14 -21 0 -43
5 -48 10 -6 6 -51 13 -100 17 -49 3 -95 11 -103 17 -20 15 -574 21 -671 6 -41
-6 -117 -15 -169 -20 -51 -5 -98 -13 -104 -19 -6 -6 -28 -11 -49 -11 -20 0
-57 -6 -80 -14 -24 -8 -62 -17 -85 -21 -24 -4 -45 -11 -49 -16 -3 -5 -20 -9
-37 -9 -18 0 -45 -7 -61 -15 -15 -8 -36 -15 -45 -15 -9 0 -28 -6 -42 -14 -14
-7 -42 -16 -62 -20 -21 -4 -37 -11 -37 -16 0 -6 -10 -10 -23 -10 -12 0 -31 -6
-42 -14 -11 -7 -35 -17 -52 -21 -18 -3 -33 -11 -33 -16 0 -5 -7 -9 -15 -9 -8
0 -32 -9 -52 -20 -21 -11 -43 -20 -50 -20 -7 0 -13 -4 -13 -9 0 -5 -12 -12
-27 -16 -15 -3 -30 -10 -33 -13 -3 -4 -27 -18 -55 -31 -27 -14 -52 -27 -55
-30 -3 -3 -25 -17 -50 -30 -41 -22 -268 -169 -280 -181 -3 -3 -36 -30 -75 -60
-105 -82 -138 -112 -280 -255 -147 -148 -245 -254 -245 -266 0 -4 -6 -12 -13
-16 -8 -4 -16 -16 -20 -25 -3 -10 -11 -18 -17 -18 -16 0 -12 30 5 36 8 4 15
13 15 20 0 8 7 17 15 20 8 4 15 11 15 16 0 10 41 66 86 118 160 185 324 352
429 435 27 22 56 47 65 55 29 26 64 54 90 71 14 9 35 25 47 35 26 23 38 31
133 94 41 27 80 54 87 60 7 5 15 10 19 10 3 0 39 19 78 43 39 23 95 54 124 67
28 14 52 28 52 32 0 5 7 8 15 8 9 0 40 13 70 29 30 16 68 32 85 36 16 4 30 11
30 16 0 5 10 9 23 9 13 0 32 7 43 15 10 8 26 15 34 15 8 0 28 7 44 15 15 8 36
15 45 15 10 0 26 7 37 15 10 8 30 15 44 15 14 0 37 6 51 14 14 7 47 16 72 20
26 4 49 11 52 15 2 5 29 12 60 16 30 3 57 11 60 16 4 5 25 9 48 9 23 1 60 7
82 15 22 8 63 15 90 15 28 1 70 6 95 12 95 23 769 29 797 6z m-272 -238 c22
-5 81 -12 130 -16 50 -4 95 -10 100 -14 6 -5 40 -11 78 -15 37 -4 70 -11 73
-16 3 -5 21 -9 41 -9 19 0 49 -6 66 -14 18 -8 49 -17 71 -20 21 -3 41 -8 44
-11 11 -10 -22 -25 -56 -25 -21 0 -31 -4 -26 -11 4 -6 22 -9 43 -6 20 3 57 9
84 13 49 7 63 -5 30 -26 -14 -8 -7 -10 34 -8 31 1 58 -4 68 -12 8 -7 48 -24
87 -37 39 -13 91 -33 114 -44 24 -10 48 -19 54 -19 5 0 18 -4 28 -9 9 -6 40
-20 67 -33 28 -12 82 -42 121 -65 39 -24 75 -43 78 -43 4 0 12 -5 19 -10 7 -6
56 -39 109 -74 54 -35 105 -71 113 -80 9 -9 19 -16 23 -16 4 0 21 -13 39 -28
17 -15 55 -47 84 -72 120 -101 224 -202 324 -315 39 -44 76 -86 82 -93 7 -7
34 -41 60 -75 26 -34 52 -67 58 -73 5 -6 17 -22 25 -34 8 -12 29 -41 46 -64
17 -22 33 -48 37 -56 9 -21 30 -52 45 -68 6 -7 12 -19 12 -27 0 -7 7 -15 15
-19 8 -3 15 -13 15 -21 0 -9 7 -23 15 -32 8 -8 13 -19 10 -24 -11 -16 -25 -10
-25 11 0 11 -7 20 -15 20 -8 0 -15 9 -15 20 0 11 -7 23 -15 26 -8 4 -15 10
-15 15 0 6 -41 65 -92 132 -92 122 -373 415 -473 492 -27 22 -52 42 -55 45
-14 16 -146 112 -230 167 -52 34 -100 66 -105 70 -17 13 -64 39 -145 80 -41
21 -76 41 -78 46 -2 4 -9 7 -14 7 -6 0 -43 15 -82 34 -106 51 -142 66 -160 66
-9 0 -16 4 -16 10 0 5 -18 13 -40 16 -22 4 -40 10 -40 15 0 4 -16 11 -37 15
-20 4 -48 13 -62 20 -14 8 -36 14 -47 14 -12 0 -35 7 -50 15 -16 8 -43 15 -59
15 -17 0 -36 5 -41 10 -6 6 -35 13 -65 17 -30 3 -59 10 -65 14 -6 5 -40 12
-75 15 -35 3 -73 10 -84 15 -61 27 -608 49 -750 30 -44 -6 -118 -15 -165 -21
-138 -17 -243 -36 -267 -48 -33 -18 -103 -16 -103 3 0 11 12 15 44 15 26 0 48
6 56 15 7 8 29 15 49 15 20 0 49 7 65 15 15 8 49 15 75 15 26 0 56 7 67 15 13
10 45 14 99 15 51 0 90 6 109 15 23 13 90 15 395 15 324 1 364 2 347 15 -17
13 -78 15 -371 15 -293 0 -354 -2 -371 -15 -13 -10 -45 -14 -105 -15 -64 0
-90 -4 -99 -15 -9 -10 -32 -15 -75 -15 -43 0 -66 -5 -75 -15 -7 -9 -30 -15
-54 -15 -22 0 -50 -7 -60 -15 -11 -8 -36 -15 -57 -15 -20 0 -42 -7 -49 -15 -7
-8 -27 -15 -45 -15 -18 0 -38 -7 -45 -15 -7 -8 -27 -15 -45 -15 -18 0 -38 -7
-45 -15 -7 -8 -25 -15 -40 -15 -16 0 -30 -7 -34 -15 -3 -9 -18 -15 -36 -15
-18 0 -33 -6 -36 -15 -4 -9 -19 -15 -35 -15 -17 0 -32 -6 -35 -15 -4 -8 -16
-15 -29 -15 -12 0 -28 -7 -35 -15 -7 -8 -21 -15 -31 -15 -10 0 -20 -4 -24 -9
-3 -6 -27 -20 -53 -33 -62 -30 -279 -160 -362 -217 -111 -75 -155 -106 -160
-111 -3 -3 -32 -27 -65 -52 -33 -25 -71 -56 -85 -68 -14 -12 -47 -40 -75 -63
-68 -57 -281 -270 -336 -336 -24 -30 -49 -59 -54 -65 -45 -47 -255 -348 -255
-365 0 -5 -6 -16 -13 -23 -7 -7 -20 -26 -29 -43 -8 -16 -38 -74 -67 -128 -28
-53 -51 -104 -51 -112 0 -8 -4 -15 -10 -15 -5 0 -10 -5 -10 -11 0 -6 -6 -25
-14 -42 -40 -89 -56 -127 -56 -135 0 -5 -7 -23 -15 -38 -8 -16 -15 -39 -15
-51 0 -12 -4 -24 -9 -27 -5 -4 -12 -24 -16 -46 -4 -22 -10 -42 -15 -45 -4 -3
-11 -26 -15 -51 -4 -26 -10 -54 -15 -63 -11 -22 -29 -112 -39 -191 -5 -36 -14
-78 -20 -93 -6 -16 -11 -65 -11 -110 -1 -52 -6 -91 -15 -107 -8 -14 -15 -54
-15 -90 -1 -36 -5 -83 -9 -105 -13 -62 -13 249 0 375 21 210 47 398 59 425 5
11 13 45 19 75 16 83 35 164 43 175 3 6 9 28 13 50 4 22 11 45 15 50 4 6 15
35 24 65 10 30 27 75 38 100 10 25 23 54 27 65 23 55 114 235 122 240 5 4 9
15 9 26 0 11 7 22 15 25 8 4 15 13 15 21 0 8 14 32 30 53 16 21 30 41 30 44 0
9 43 70 53 74 4 2 7 8 7 13 0 8 30 53 77 114 128 165 152 193 294 334 109 110
163 160 234 216 27 22 55 45 61 50 6 6 22 17 34 25 12 8 28 20 34 25 6 6 28
21 48 35 21 14 38 28 38 33 0 4 6 7 14 7 8 0 21 6 28 13 19 18 211 133 237
142 11 3 21 11 21 16 0 5 9 9 19 9 11 0 22 4 25 9 4 5 27 19 54 31 26 12 61
27 77 35 17 8 53 23 80 35 28 11 57 24 65 29 9 5 30 12 48 15 17 4 34 12 37
17 4 5 16 9 29 9 12 0 31 7 42 15 10 8 30 15 44 15 14 0 38 7 54 15 15 8 37
15 48 15 11 0 34 6 51 14 37 15 113 33 212 47 39 6 74 15 79 20 6 5 35 9 65
10 31 0 79 5 106 11 112 23 588 29 680 8z m-1035 -260 c0 -11 -65 -24 -79 -15
-24 14 -9 25 34 25 25 0 45 -4 45 -10z m-106 -29 c7 -11 -31 -22 -50 -14 -8 3
-14 9 -14 14 0 12 57 12 64 0z m-99 -31 c4 -6 -5 -10 -19 -10 -14 0 -26 5 -26
10 0 6 9 10 19 10 11 0 23 -4 26 -10z m-1637 -902 c-6 -18 -28 -21 -28 -4 0 9
7 16 16 16 9 0 14 -5 12 -12z m272 -58 c0 -6 -7 -13 -15 -16 -8 -4 -15 -11
-15 -16 0 -5 -20 -36 -45 -68 -25 -32 -45 -62 -45 -65 0 -4 -13 -24 -28 -44
-80 -102 -312 -534 -312 -579 0 -5 -7 -23 -15 -38 -8 -16 -15 -37 -15 -46 0
-9 -4 -19 -9 -22 -5 -4 -12 -24 -16 -46 -4 -22 -11 -40 -15 -40 -5 0 -12 -20
-16 -45 -3 -25 -10 -48 -15 -50 -4 -3 -11 -27 -15 -53 -3 -26 -10 -51 -14 -57
-5 -5 -11 -32 -15 -60 -4 -27 -11 -55 -16 -60 -4 -6 -11 -42 -15 -80 -4 -39
-11 -79 -17 -89 -5 -11 -14 -69 -18 -130 -26 -321 -28 -388 -19 -517 6 -74 14
-185 19 -246 5 -62 13 -118 18 -125 6 -7 13 -44 16 -82 4 -37 11 -73 15 -80 5
-6 13 -37 16 -68 4 -32 11 -60 16 -63 4 -2 11 -25 14 -50 4 -24 11 -47 17 -50
5 -4 9 -18 9 -33 0 -15 6 -39 14 -54 8 -15 17 -41 21 -58 4 -17 13 -43 21 -58
8 -15 14 -35 14 -44 0 -10 5 -18 10 -18 6 0 10 -7 10 -16 0 -8 9 -36 21 -62
31 -71 142 -296 149 -302 3 -3 16 -25 29 -50 13 -25 36 -64 52 -88 16 -24 29
-47 29 -52 0 -4 3 -10 8 -12 4 -1 25 -30 47 -63 44 -66 47 -70 75 -104 11 -13
20 -27 20 -30 0 -3 13 -20 28 -37 15 -17 47 -55 72 -85 50 -60 134 -152 166
-184 56 -53 113 -103 154 -136 83 -67 124 -108 116 -116 -4 -4 -13 0 -20 10
-7 9 -16 17 -20 17 -22 0 -228 173 -341 285 -144 144 -175 178 -255 280 -30
39 -58 75 -63 80 -4 6 -30 42 -57 80 -28 39 -53 75 -58 80 -7 9 -130 216 -154
260 -43 78 -78 150 -78 160 0 7 -7 18 -15 25 -8 7 -15 23 -15 35 0 12 -7 28
-15 35 -8 7 -15 22 -15 34 0 11 -7 30 -15 40 -8 11 -15 29 -15 40 0 12 -7 30
-15 40 -8 11 -15 29 -15 41 0 12 -4 25 -9 31 -4 5 -18 43 -31 84 -13 41 -29
94 -37 118 -7 23 -13 55 -13 70 0 16 -5 33 -11 39 -5 5 -14 46 -19 89 -5 43
-14 113 -19 154 -14 104 -14 506 0 550 6 19 15 81 19 138 5 57 13 108 18 115
5 7 12 41 16 76 3 35 10 69 15 75 5 6 12 34 16 61 4 28 11 55 15 60 5 6 11 31
15 58 4 26 11 49 15 52 5 3 11 23 15 45 4 22 11 42 16 46 5 3 9 15 9 27 1 12
9 40 20 62 11 22 19 46 20 53 0 7 4 20 10 30 5 9 17 35 26 57 9 22 32 72 50
112 19 39 34 76 34 81 0 6 3 12 8 14 4 2 16 21 26 43 18 35 125 217 166 280
52 81 106 155 113 155 4 0 7 7 7 15 0 8 4 15 8 15 5 0 23 19 40 43 62 87 102
125 102 97z m5086 -397 c-11 -11 -19 6 -11 24 8 17 8 17 12 0 3 -10 2 -21 -1
-24z m-5568 -3061 c2 -7 -3 -12 -12 -12 -9 0 -16 7 -16 16 0 17 22 14 28 -4z
m4913 -1105 c-1 -12 -15 -9 -19 4 -3 6 1 10 8 8 6 -3 11 -8 11 -12z m-3591
-157 c0 -5 -7 -10 -15 -10 -8 0 -15 5 -15 10 0 6 7 10 15 10 8 0 15 -4 15 -10z
m60 -30 c0 -5 -9 -10 -20 -10 -11 0 -20 5 -20 10 0 6 9 10 20 10 11 0 20 -4
20 -10z m54 -31 c-7 -11 -34 -12 -34 -1 0 14 11 21 26 15 8 -3 11 -9 8 -14z
m56 -29 c0 -5 -9 -10 -20 -10 -11 0 -20 5 -20 10 0 6 9 10 20 10 11 0 20 -4
20 -10z"/>
<path d="M4511 5932 c-68 -26 -83 -54 -89 -166 -5 -96 -5 -96 19 -96 68 1 87
27 67 93 -10 33 -9 41 9 65 27 37 56 39 82 6 24 -31 26 -45 9 -90 -15 -42 1
-64 47 -64 l33 0 4 88 c4 79 2 90 -20 119 -14 19 -41 38 -69 47 -26 9 -47 16
-47 15 -1 0 -21 -8 -45 -17z"/>
<path d="M4884 5874 c-11 -3 -38 -22 -59 -44 -34 -35 -38 -44 -38 -92 -1 -62
18 -108 52 -124 13 -7 28 -18 32 -26 6 -9 9 -5 9 13 0 14 -11 40 -25 59 -36
49 -32 71 19 108 24 18 51 32 59 32 21 0 65 -45 72 -73 8 -31 3 -41 -58 -107
-27 -29 -53 -64 -58 -77 -8 -22 -14 -25 -41 -19 -17 3 -49 22 -72 42 -22 19
-46 39 -53 45 -14 10 -38 11 -70 3 -20 -6 -19 -9 22 -47 24 -23 46 -43 49 -44
19 -6 66 -38 66 -44 0 -14 98 -79 118 -79 29 0 36 16 42 90 5 64 6 65 43 84
21 10 52 37 69 60 26 36 29 47 26 93 -5 54 -39 112 -78 133 -23 12 -96 20
-126 14z"/>
<path d="M4018 5675 c-57 -21 -96 -54 -113 -97 -19 -49 -19 -102 0 -118 8 -7
15 -18 15 -25 0 -7 18 -28 40 -45 52 -41 126 -47 163 -12 29 27 50 28 93 1 43
-26 66 -19 103 34 16 24 41 49 56 57 15 8 35 30 46 50 27 51 41 66 68 75 32
10 9 25 -39 25 -30 0 -45 -9 -98 -62 -35 -35 -66 -68 -70 -75 -4 -6 -19 -14
-34 -18 -24 -6 -29 -3 -38 20 -5 14 -10 44 -10 65 0 47 -32 89 -90 119 -47 24
-43 24 -92 6z m79 -97 c28 -14 47 -59 38 -96 -4 -22 -15 -33 -45 -45 -39 -15
-40 -15 -59 9 -10 13 -24 24 -30 24 -6 0 -16 12 -22 26 -8 23 -5 33 17 65 28
41 46 44 101 17z"/>
<path d="M4689 5475 c-9 -20 -15 -114 -19 -290 -4 -143 -7 -261 -8 -262 -1 0
-15 -6 -31 -11 -22 -8 -29 -18 -34 -47 -4 -23 -1 -50 7 -69 8 -17 73 -89 145
-160 72 -71 131 -133 131 -138 0 -4 11 -8 24 -8 16 0 35 13 55 37 34 41 31 54
-21 98 -18 15 -65 57 -104 94 -39 36 -88 80 -108 97 -27 24 -36 39 -36 63 0
28 3 31 30 31 41 0 45 17 27 98 -10 43 -17 136 -20 263 -3 110 -9 205 -15 215
-10 17 -12 17 -23 -11z"/>
<path d="M4412 5394 c-7 -31 -12 -106 -12 -165 0 -75 -4 -115 -15 -135 -8 -16
-15 -36 -15 -45 0 -21 -38 -106 -50 -114 -12 -8 -12 -16 -1 -34 8 -12 14 -12
41 -1 56 23 57 17 50 -285 -5 -202 -3 -273 5 -283 7 -8 30 -16 53 -19 32 -4
42 -2 50 13 11 21 -1 526 -13 556 -4 9 -20 21 -35 27 -38 13 -46 45 -30 129 6
37 15 87 20 111 10 60 -4 241 -22 275 l-15 28 -11 -58z"/>
<path d="M4530 4930 c0 -5 9 -10 19 -10 11 0 23 5 26 10 4 6 -5 10 -19 10 -14
0 -26 -4 -26 -10z"/>
<path d="M7524 4526 c-4 -10 -3 -89 1 -175 10 -194 10 -183 0 -436 -4 -115
-12 -213 -18 -216 -5 -4 -12 -48 -15 -99 -4 -76 -2 -92 9 -88 10 3 15 28 17
94 2 67 6 92 18 101 15 11 16 58 17 413 0 279 -4 405 -11 412 -8 8 -13 7 -18
-6z"/>
<path d="M2621 3852 c-12 -23 -21 -48 -21 -56 0 -8 -6 -27 -14 -43 -15 -30
-41 -89 -50 -113 -3 -8 -10 -22 -14 -30 -5 -8 -16 -31 -24 -50 -9 -19 -23 -52
-32 -72 -9 -21 -24 -55 -33 -75 -9 -21 -20 -45 -25 -53 -4 -8 -11 -22 -14 -30
-22 -54 -77 -160 -85 -165 -24 -15 9 -25 82 -25 67 0 81 3 85 18 4 9 13 36 23
59 l16 43 133 0 c119 0 132 -2 132 -17 0 -10 8 -37 18 -60 l17 -43 79 0 78 0
-7 28 c-3 15 -13 34 -21 43 -8 8 -14 20 -14 25 0 5 -14 38 -31 74 -17 36 -36
79 -44 95 -7 17 -27 62 -45 100 -17 39 -37 84 -44 100 -18 43 -47 107 -57 127
-5 10 -18 46 -30 80 -12 35 -25 67 -29 72 -5 4 -18 -10 -29 -32z m44 -334 c8
-28 32 -86 46 -112 8 -14 7 -21 -3 -27 -19 -12 -126 -11 -133 2 -4 5 0 24 8
42 8 18 23 51 33 75 20 46 39 54 49 20z"/>
<path d="M6087 3884 c-9 -10 -9 -54 1 -54 8 0 31 -38 69 -110 13 -25 33 -58
43 -75 11 -16 22 -37 26 -45 3 -8 10 -22 15 -30 5 -8 13 -25 18 -37 6 -11 15
-24 20 -28 7 -4 11 -70 11 -186 l0 -179 75 0 75 0 0 168 c0 161 1 171 25 213
13 24 36 67 50 94 14 28 35 64 45 80 11 17 24 39 30 50 20 37 36 63 49 78 17
21 10 63 -9 58 -8 -2 -40 -5 -72 -6 -31 -2 -60 -5 -66 -9 -9 -5 -52 -91 -96
-188 -9 -21 -22 -38 -29 -38 -12 0 -107 186 -107 209 0 12 -22 17 -90 24 -25
3 -52 8 -61 11 -8 4 -18 3 -22 0z"/>
<path d="M3054 3871 c-2 -2 -4 -168 -4 -368 l0 -363 76 0 77 0 -5 151 -6 151
103 -3 c57 -2 107 0 112 4 6 7 6 137 -1 144 -1 2 -47 -1 -101 -7 -75 -7 -101
-6 -107 3 -10 15 -10 128 0 144 5 8 40 9 132 4 69 -4 133 -4 143 1 13 7 17 22
17 69 0 38 -4 61 -13 64 -15 6 -417 12 -423 6z"/>
<path d="M3564 3871 c-2 -2 -4 -168 -4 -368 l0 -363 76 0 76 0 -3 143 c-2 78
-1 147 3 152 4 6 41 8 100 4 51 -3 98 -4 104 -2 12 4 16 123 5 141 -4 7 -39 8
-106 2 -74 -6 -102 -5 -107 3 -10 15 -10 128 0 144 5 8 41 9 132 4 69 -4 132
-5 142 -3 12 3 17 18 20 64 1 33 0 64 -3 70 -6 9 -426 18 -435 9z"/>
<path d="M4080 3866 c-6 -6 -10 -155 -10 -368 l0 -358 75 0 75 0 -2 367 -3
368 -63 0 c-35 0 -67 -4 -72 -9z"/>
<path d="M4316 3872 c-3 -3 -6 -169 -6 -369 l0 -363 76 0 77 0 -7 140 c-7 133
-6 140 11 140 13 0 27 -16 42 -47 23 -51 30 -63 74 -130 15 -24 27 -46 27 -50
1 -5 9 -18 19 -30 15 -18 29 -22 92 -23 97 -2 99 -2 99 11 0 6 -19 36 -43 67
-23 31 -51 71 -61 87 -11 17 -27 38 -37 48 -29 28 -23 50 20 70 89 41 132 161
98 274 -13 44 -79 133 -99 133 -6 0 -19 7 -29 16 -12 10 -45 17 -110 20 -52 2
-126 6 -166 8 -39 3 -74 2 -77 -2z m279 -151 c48 -21 81 -75 71 -114 -3 -14
-17 -38 -30 -54 -20 -23 -34 -28 -92 -34 -38 -3 -73 -2 -79 2 -8 6 -12 145 -6
207 2 19 89 15 136 -7z"/>
<path d="M4909 3868 c-2 -7 -3 -174 -1 -370 l3 -358 76 0 76 0 -7 137 c-4 75
-8 142 -9 147 -1 6 8 12 20 14 15 2 23 -3 29 -20 4 -13 28 -54 53 -91 70 -105
80 -120 91 -144 16 -39 34 -29 84 46 20 29 36 55 36 58 0 2 11 19 24 36 13 18
35 52 48 77 14 25 31 45 39 45 12 0 13 -26 10 -152 l-4 -153 74 0 74 0 0 370
c0 204 -3 370 -7 370 -4 0 -29 -33 -56 -72 -65 -98 -141 -208 -153 -222 -33
-38 -109 -151 -109 -162 0 -21 -42 -29 -54 -10 -39 59 -111 162 -171 245 -86
120 -94 132 -101 154 -4 9 -10 17 -14 17 -4 0 -12 11 -18 25 -12 27 -28 33
-33 13z"/>
<path d="M5725 3871 c-3 -2 -5 -168 -5 -368 l0 -363 218 2 217 3 3 73 3 73
-138 -1 c-76 -1 -144 -1 -152 -1 -12 1 -13 47 -9 291 3 160 3 291 -1 291 -18
4 -132 4 -136 0z"/>
<path d="M7465 3488 c-4 -9 -2 -36 3 -60 l9 -43 8 48 c5 32 4 52 -3 59 -8 8
-13 7 -17 -4z"/>
<path d="M7374 3116 c-4 -16 -2 -32 4 -38 8 -8 13 -3 18 16 4 16 2 32 -4 38
-8 8 -13 3 -18 -16z"/>
<path d="M7347 3054 c-4 -4 -7 -20 -7 -36 0 -35 23 -34 28 1 4 25 -10 46 -21
35z"/>
<path d="M7317 2973 c-4 -3 -7 -19 -7 -34 0 -15 -7 -29 -15 -33 -9 -3 -15 -18
-15 -35 0 -16 -6 -31 -15 -35 -8 -3 -15 -16 -15 -30 0 -13 -7 -26 -15 -30 -8
-3 -15 -16 -15 -29 0 -14 -7 -30 -15 -37 -8 -7 -15 -18 -15 -25 0 -7 -7 -18
-15 -25 -8 -7 -15 -21 -15 -32 0 -10 -7 -21 -15 -24 -8 -4 -15 -17 -15 -30 0
-13 -5 -24 -11 -24 -5 0 -15 -13 -20 -30 -6 -16 -15 -30 -20 -30 -5 0 -9 -7
-9 -15 0 -7 -6 -18 -13 -22 -6 -4 -22 -29 -35 -55 -13 -27 -28 -48 -33 -48 -5
0 -9 -9 -9 -20 0 -27 17 -25 26 2 4 12 17 31 30 41 22 17 40 44 63 95 6 12 15
22 21 22 5 0 10 8 10 19 0 10 6 24 14 30 8 7 17 23 20 36 4 14 11 25 16 25 6
0 10 8 10 19 0 10 7 24 15 31 8 7 15 20 15 30 0 10 7 23 15 30 8 7 15 23 15
37 0 13 7 26 15 29 8 4 15 18 15 34 0 16 7 30 15 34 8 3 15 16 15 29 0 14 7
30 15 37 8 7 15 25 15 41 0 28 -9 37 -23 22z"/>
<path d="M3050 2911 c0 -10 7 -35 15 -54 8 -20 15 -52 15 -72 0 -24 4 -35 15
-35 11 0 15 12 15 48 0 26 7 60 15 76 19 36 19 56 0 56 -8 0 -15 -7 -15 -15 0
-8 -5 -15 -10 -15 -6 0 -13 7 -16 15 -9 21 -34 19 -34 -4z"/>
<path d="M3207 2924 c-4 -4 -7 -45 -7 -91 l0 -83 30 0 31 0 -3 88 c-3 79 -5
87 -23 90 -12 2 -24 0 -28 -4z"/>
<path d="M3320 2852 c0 -47 5 -83 12 -90 18 -18 46 -14 58 7 13 25 13 151 0
151 -5 0 -9 -27 -9 -59 1 -33 -2 -64 -6 -70 -15 -25 -25 4 -25 70 0 55 -3 69
-15 69 -12 0 -15 -15 -15 -78z"/>
<path d="M3456 2915 c-4 -12 0 -19 14 -22 15 -4 20 -14 20 -39 0 -22 -5 -34
-14 -34 -7 0 -16 -12 -19 -26 -3 -20 1 -27 20 -35 50 -19 52 -15 50 79 l-2 87
-31 3 c-22 2 -33 -2 -38 -13z"/>
<path d="M3680 2841 l0 -91 30 0 c23 0 30 4 30 20 0 11 -4 20 -10 20 -5 0 -10
9 -10 20 0 11 5 20 11 20 6 0 9 19 7 48 -3 43 -5 47 -30 50 l-28 3 0 -90z"/>
<path d="M3804 2917 c-10 -27 1 -160 14 -165 9 -3 12 18 12 82 0 78 -12 118
-26 83z"/>
<path d="M3894 2917 c-3 -8 -4 -47 -2 -88 l3 -74 30 0 c20 0 31 5 33 18 2 10
-3 17 -12 17 -9 0 -16 8 -16 20 0 11 5 20 10 20 17 0 11 38 -7 45 -17 6 -17 7
0 19 9 7 17 18 17 25 0 16 -50 14 -56 -2z"/>
<path d="M4024 2917 c-3 -8 -4 -47 -2 -88 3 -72 4 -74 30 -77 35 -4 54 30 44
82 -6 30 -11 36 -31 36 -33 0 -32 18 1 30 14 6 22 14 19 20 -9 15 -55 12 -61
-3z m44 -105 c2 -15 -2 -22 -12 -22 -11 0 -16 9 -16 26 0 31 23 28 28 -4z"/>
<path d="M4158 2923 c-2 -5 -4 -44 -4 -88 1 -80 1 -80 29 -83 30 -4 35 9 12
28 -19 16 -19 44 0 60 14 12 14 15 0 30 -14 15 -14 18 0 30 8 7 12 16 9 21 -6
11 -41 12 -46 2z"/>
<path d="M4277 2924 c-12 -12 -8 -47 8 -78 19 -36 19 -46 -1 -46 -10 0 -14 -7
-12 -22 2 -18 10 -23 33 -23 27 0 30 4 33 34 2 23 -2 37 -12 43 -20 12 -21 34
0 42 26 10 13 50 -16 54 -14 2 -29 0 -33 -4z"/>
<path d="M4390 2919 c0 -7 8 -17 17 -24 13 -10 17 -28 18 -76 0 -50 3 -64 15
-64 12 0 16 16 18 70 2 39 7 74 13 80 18 18 8 25 -36 25 -27 0 -45 -5 -45 -11z"/>
<path d="M4636 2899 c-8 -40 -8 -113 0 -133 8 -21 53 -21 61 0 3 8 -4 25 -16
38 -26 28 -27 47 -1 76 25 29 21 44 -12 48 -21 3 -26 -2 -32 -29z"/>
<path d="M4767 2924 c-4 -4 -7 -45 -7 -91 0 -82 1 -84 22 -81 19 2 24 12 30
56 5 30 4 68 0 85 -8 31 -30 46 -45 31z"/>
<path d="M4884 2917 c-3 -8 -4 -47 -2 -88 3 -72 4 -74 31 -77 29 -4 39 21 12
32 -20 7 -19 43 2 55 17 9 16 11 -1 30 -17 19 -17 21 -2 27 9 3 16 12 16 20 0
18 -49 19 -56 1z"/>
<path d="M5007 2923 c-4 -3 -7 -44 -7 -90 l0 -83 30 0 c32 0 42 23 15 34 -19
7 -19 40 0 56 14 12 14 15 -1 31 -15 17 -15 19 0 25 24 9 19 34 -7 34 -13 0
-27 -3 -30 -7z"/>
<path d="M5124 2917 c-3 -8 -4 -47 -2 -88 3 -71 4 -74 28 -74 20 0 26 6 28 29
2 16 -1 33 -7 39 -14 14 -14 57 -1 57 6 0 10 11 10 25 0 20 -5 25 -25 25 -14
0 -28 -6 -31 -13z"/>
<path d="M5246 2921 c-7 -11 -7 -129 0 -153 4 -12 15 -18 35 -18 34 0 38 14 9
30 -17 9 -20 21 -20 80 0 63 -9 86 -24 61z"/>
<path d="M5367 2923 c-4 -3 -7 -42 -7 -85 0 -72 2 -79 23 -87 14 -6 27 -5 36
2 11 9 10 14 -8 25 -24 17 -28 50 -6 58 20 8 19 24 -2 39 -15 11 -15 13 5 24
13 7 20 16 17 22 -7 10 -48 12 -58 2z"/>
<path d="M5506 2908 c-2 -13 -9 -47 -15 -76 -14 -70 -14 -82 4 -82 10 0 15 10
15 31 0 36 21 35 30 -1 8 -35 30 -37 29 -3 -1 61 -25 148 -42 151 -10 2 -18
-5 -21 -20z"/>
<path d="M5630 2840 l0 -90 30 0 c23 0 30 4 30 20 0 11 -4 20 -10 20 -5 0 -10
20 -10 44 0 25 5 48 10 51 6 3 10 15 10 26 0 14 -7 19 -30 19 l-30 0 0 -90z"/>
<path d="M5759 2923 c-4 -31 -6 -141 -2 -155 3 -11 14 -18 28 -18 32 0 40 16
15 30 -26 14 -26 46 2 61 l21 11 -23 18 -23 18 22 11 c12 7 19 16 16 22 -7 11
-55 12 -56 2z"/>
<path d="M5877 2913 c-9 -38 -7 -152 3 -158 6 -4 24 -4 40 0 25 6 29 10 24 30
-3 12 -1 26 5 29 16 10 13 68 -5 94 -18 27 -61 30 -67 5z m53 -64 c0 -20 -4
-29 -12 -27 -15 5 -22 33 -14 54 9 24 26 6 26 -27z"/>
<path d="M7013 2715 c-3 -9 -3 -18 0 -21 9 -9 27 6 27 22 0 19 -19 18 -27 -1z"/>
<path d="M6980 2666 c0 -22 17 -28 24 -10 9 22 8 24 -9 24 -8 0 -15 -6 -15
-14z"/>
<path d="M6955 2619 c-10 -15 3 -25 16 -12 7 7 7 13 1 17 -6 3 -14 1 -17 -5z"/>
<path d="M6953 2294 c-4 -10 -14 -24 -22 -31 -9 -6 -13 -15 -9 -19 4 -4 20 5
35 20 20 20 23 30 15 38 -8 8 -13 6 -19 -8z"/>
<path d="M6144 1775 c-4 -8 -13 -15 -20 -15 -8 0 -17 -7 -20 -15 -4 -8 -14
-15 -24 -15 -10 0 -23 -7 -30 -15 -7 -8 -19 -15 -26 -15 -8 0 -14 -4 -14 -10
0 -5 -11 -12 -24 -16 -14 -3 -27 -12 -30 -20 -3 -8 -14 -14 -25 -14 -11 0 -22
-4 -25 -9 -5 -8 -41 -28 -121 -69 -16 -9 -36 -22 -43 -29 -7 -7 -21 -13 -30
-13 -9 0 -26 -7 -36 -15 -11 -8 -28 -15 -38 -15 -10 0 -18 -4 -18 -10 0 -5 -6
-10 -12 -10 -7 -1 -31 -9 -53 -20 -22 -11 -46 -19 -53 -20 -7 0 -20 -7 -28
-15 -9 -8 -25 -15 -37 -15 -12 0 -31 -7 -41 -15 -11 -8 -30 -15 -42 -15 -12 0
-35 -7 -50 -15 -16 -8 -39 -15 -51 -15 -12 0 -24 -4 -27 -9 -3 -4 -28 -11 -56
-15 -27 -4 -50 -10 -50 -15 0 -5 -27 -11 -60 -15 -33 -4 -60 -11 -60 -15 0 -4
-32 -11 -70 -15 -39 -3 -78 -10 -88 -15 -17 -10 -132 -25 -302 -40 -140 -13
-518 -13 -565 1 -22 6 -80 13 -130 17 -49 3 -100 12 -112 19 -33 18 -143 16
-143 -3 0 -12 13 -15 59 -15 33 0 71 -7 87 -15 17 -8 55 -15 90 -15 34 0 81
-7 104 -15 35 -12 106 -15 382 -15 214 0 346 4 359 10 10 6 56 13 101 17 46 3
88 9 93 13 6 4 39 11 75 14 36 4 67 12 71 17 3 5 30 12 59 16 30 3 65 12 79
20 15 7 38 13 53 13 15 0 29 4 33 9 3 6 26 13 50 17 25 3 45 10 45 14 0 4 15
10 33 14 30 6 63 19 129 53 14 7 35 13 46 13 11 0 25 7 32 15 7 8 23 15 36 15
13 0 24 4 24 10 0 5 12 13 27 16 15 4 34 13 41 21 7 7 22 13 32 13 10 0 20 7
24 15 3 8 16 15 30 15 13 0 26 7 30 15 3 8 14 15 24 15 11 0 25 7 32 15 7 8
19 15 26 15 8 0 14 4 14 10 0 5 11 12 24 16 14 3 27 12 30 20 3 8 15 14 26 14
11 0 23 7 26 15 4 8 12 15 20 15 7 0 17 6 21 13 9 14 41 35 66 43 9 4 17 12
17 19 0 7 9 15 20 18 11 3 20 10 20 16 0 17 -30 13 -36 -4z"/>
<path d="M4910 7393 c0 -6 7 -14 16 -17 25 -10 148 -7 164 4 12 7 8 10 -15 10
-16 0 -60 3 -97 7 -45 4 -68 2 -68 -4z"/>
</g>
</svg>
